# AST/ASF file generated using VICON BodyLanguage
# -----------------------------------------------
:version 1.10
:name VICON
:units
  mass 1.0
  length 0.45
  angle deg
:documentation
   .ast/.asf automatically generated from VICON data using
   VICON BodyBuilder and BodyLanguage model FoxedUp or BRILLIANT.MOD
:root
   order TX TY TZ RX RY RZ
   axis XYZ
   position 0 0 0  
   orientation 0 0 0 
:bonedata
  begin
     id 1 
     name lhipjoint
     direction 0.623415 -0.642378 0.445763 
     length 2.49859 
     axis 0 0 0  XYZ
  end
  begin
     id 2 
     name lfemur
     direction 0.34202 -0.939693 0  
     length 6.69689  
     axis 0 0 20  XYZ
    dof rx ry rz
    limits (-160.0 20.0)
           (-70.0 70.0)
           (-60.0 70.0)
  end
  begin
     id 3 
     name ltibia
     direction 0.34202 -0.939693 0   
     length 7.37574   
     axis 0 0 20   XYZ
    dof rx
    limits (-10.0 170.0)
  end
  begin
     id 4 
     name lfoot
     direction 0.084323 -0.231675 0.969132   
     length 2.09111   
     axis -90 7.62852e-016 20   XYZ
    dof rx rz
    limits (-45.0 90.0)
           (-70.0 20.0)
  end
  begin
     id 5 
     name ltoes
     direction 1.5357e-011 -4.21957e-011 1   
     length 1.04989   
     axis -90 7.62852e-016 20   XYZ
    dof rx
    limits (-90.0 20.0)
  end
  begin
     id 6 
     name rhipjoint
     direction -0.605402 -0.653903 0.45376   
     length 2.45455  
     axis 0 0 0  XYZ 
  end
  begin
     id 7 
     name rfemur
     direction -0.34202 -0.939693 0   
     length 6.64523   
     axis 0 0 -20   XYZ
    dof rx ry rz
    limits (-160.0 20.0)
           (-70.0 70.0)
           (-70.0 60.0)
  end
  begin
     id 8 
     name rtibia
     direction -0.34202 -0.939693 0   
     length 7.3339   
     axis 0 0 -20   XYZ
    dof rx
    limits (-10.0 170.0)
 end
 begin
     id 9 
     name rfoot
     direction -0.120854 -0.332043 0.93549   
     length 2.23135  
     axis -90 -7.62852e-016 -20   XYZ
    dof rx rz
    limits (-45.0 90.0)
           (-20.0 70.0)
  end
  begin
     id 10 
     name rtoes
     direction -1.53563e-011 -4.21914e-011 1   
     length 1.10614   
     axis -90 -7.62852e-016 -20   XYZ
    dof rx
    limits (-90.0 20.0)
  end
  begin
     id 11 
     name lowerback
     direction 0.0319682 0.998615 -0.0417941   
     length 2.02718   
     axis 0 0 0   XYZ
    dof rx ry rz
    limits (-20.0 45.0)
           (-30.0 30.0)
           (-30.0 30.0)
  end
  begin
     id 12 
     name upperback
     direction 7.63181e-005 0.995808 0.0914691   
     length 1.97539   
     axis 0 0 0   XYZ
    dof rx ry rz
    limits (-20.0 45.0)
           (-30.0 30.0)
           (-30.0 30.0)
  end
  begin
     id 13 
     name thorax
     direction -0.016423 0.993627 0.111514   
     length 2.00349   
     axis 0 0 0   XYZ
    dof rx ry rz
    limits (-20.0 45.0)
           (-30.0 30.0)
           (-30.0 30.0)
  end
  begin
     id 14 
     name lowerneck
     direction -0.174763 0.981668 -0.0760716   
     length 1.71436   
     axis 0 0 0   XYZ
    dof rx ry rz
    limits (-20.0 45.0)
           (-30.0 30.0)
           (-30.0 30.0)
  end
  begin
     id 15 
     name upperneck
     direction 0.345458 0.934587 -0.0848868   
     length 1.72805   
     axis 0 0 0   XYZ
    dof rx ry rz
    limits (-20.0 45.0)
           (-30.0 30.0)
           (-30.0 30.0)
  end
  begin
     id 16
     name head
     direction 0.13001 0.989848 -0.0574291  
     length 1.767  
     axis 0 0 0   XYZ
    dof rx ry rz
    limits (-20.0 45.0)
           (-30.0 30.0)
           (-30.0 30.0)
  end
  begin
     id 17 
     name lclavicle
     direction 0.952951 0.290122 0.0878234  
     length 3.54654  
     axis 0 0 0   XYZ
    dof ry rz
    limits (-20.0 10.0)
           (0.0 20.0)
  end
  begin
     id 18 
     name lhumerus
     direction 1 -4.48957e-011 -4.56525e-028   
     length 5.19807   
     axis 180 -30 -90   XYZ
    dof rx ry rz
    limits (-60.0 90.0)
           (-90.0 90.0)
           (-90.0 90.0)
  end
  begin
     id 19
     name lradius
     direction 1 -4.48979e-011 -2.0317e-027   
     length 3.0937   
     axis 180 -30 -90   XYZ
    dof rx
    limits (-10.0 170.0)
  end
  begin
     id 20
     name lwrist
     direction 1 -4.48953e-011 -3.05809e-027   
     length 1.54685   
     axis 8.48514e-016 90 90   XYZ
    dof ry
    limits (-180.0 0.0)
 end
  begin
     id 21 
     name lhand
     direction 1 -4.48952e-011 -6.11639e-027   
     length 0.672632   
     axis 3.9013e-015 90 90   XYZ
    dof rx rz
    limits (-90.0 90.0)
           (-45.0 45.0)
  end
  begin
     id 22 
     name lfingers
     direction 1 -4.48925e-011 -1.22426e-026   
     length 0.542293   
     axis 7.80276e-015 90 90   XYZ
    dof rx
    limits (0.0 90.0)
  end
  begin
     id 23
     name lthumb
     direction 0.707107 -6.3486e-011 0.707107   
     length 0.778628   
     axis -90 45 5.37419e-014   XYZ
    dof rx rz
    limits (-45.0 45.0)
           (-45.0 45.0)
  end
  begin
     id 24 
     name rclavicle
     direction -0.960732 0.273675 -0.0457849   
     length 3.52079  
     axis 0 0 0   XYZ 
    dof ry rz
    limits (-10.0 20.0)
           (-20.0 0.0)
  end
  begin
     id 25 
     name rhumerus
     direction -1 -4.48976e-011 -1.63613e-027  
     length 5.45222   
     axis 180 30 90   XYZ
    dof rx ry rz
    limits (-90.0 60.0)
           (-90.0 90.0)
           (-90.0 90.0)
  end
  begin
     id 26 
     name rradius
     direction -1 -4.48957e-011 -7.00033e-028   
     length 3.01284   
     axis 180 30 90   XYZ
    dof rx
    limits (-10.0 170.0)
  end
  begin
     id 27 
     name rwrist
     direction -1 -4.48983e-011 -3.05543e-027   
     length 1.50642   
     axis 8.48514e-016 -90 -90   XYZ
    dof ry
    limits (-180.0 0.0)
  end
  begin
     id 28
     name rhand
     direction -1 -4.48984e-011 -6.11072e-027   
     length 0.622296   
     axis 3.9013e-015 -90 -90   XYZ
    dof rx rz
    limits (-90.0 90.0)
           (-45.0 45.0)
  end
  begin
     id 29
     name rfingers
     direction -1 -4.48865e-011 -1.22637e-026   
     length 0.501711   
     axis 7.80276e-015 -90 -90   XYZ
    dof rx
    limits (0.0 90.0)
  end
  begin
     id 30
     name rthumb
     direction -0.707107 -6.34932e-011 0.707107   
     length 0.72036   
     axis -90 -45 -5.37419e-014   XYZ
    dof rx rz
    limits (-45.0 45.0)
           (-45.0 45.0)
  end
:hierarchy
  begin
    root lhipjoint rhipjoint lowerback
    lhipjoint lfemur
    lfemur ltibia
    ltibia lfoot
    lfoot ltoes
    rhipjoint rfemur
    rfemur rtibia
    rtibia rfoot
    rfoot rtoes
    lowerback upperback
    upperback thorax
    thorax lowerneck lclavicle rclavicle
    lowerneck upperneck
    upperneck head
    lclavicle lhumerus
    lhumerus lradius
    lradius lwrist
    lwrist lhand lthumb
    lhand lfingers
    rclavicle rhumerus
    rhumerus rradius
    rradius rwrist
    rwrist rhand rthumb
    rhand rfingers
  end

#!OML:ASF H:\Not Pregnant\Project 1\Capture day 1\Session 1\non-pregnant.ASF
:FULLY-SPECIFIED
:DEGREES
749
root 17.8447 16.4729 -13.3005 188.539 -13.4231 186.247
lowerback -0.483505 6.47438 8.39805
upperback -7.73226 8.47708 -1.49525
thorax -6.4358 3.45575 -6.52438
lowerneck 6.56083 -3.4311 -31.1265
upperneck 17.8359 -14.0704 32.2361
head 8.90538 -8.93463 17.2979
rclavicle 1.67476e-014 3.97569e-015
rhumerus -28.1284 0.30725 -87.5424
rradius 34.4376
rwrist 8.55185
rhand -8.228 -5.93671
rfingers 7.12502
rthumb 17.6894 -35.1521
lclavicle 1.67476e-014 3.97569e-015
lhumerus -46.4504 -1.76764 81.7705
lradius 37.6256
lwrist 38.233
lhand -10.9896 -10.1854
lfingers 7.12502
lthumb 15.0305 19.249
rfemur -17.189 -6.52551 27.895
rtibia 25.1415
rfoot -20.5845 18.8572
rtoes -1.52285
lfemur -35.4285 7.75698 -21.6863
ltibia 38.5216
lfoot -13.1403 16.2706
ltoes 7.44281
750
root 17.8131 16.4677 -13.3476 188.648 -14.1337 186.041
lowerback -0.82659 6.492 7.98605
upperback -7.7798 8.44442 -1.53959
thorax -6.33988 3.46454 -6.30784
lowerneck 6.60379 -3.4217 -30.9464
upperneck 17.7883 -14.0265 32.2391
head 8.84642 -8.89406 17.2588
rclavicle 1.27719e-014 6.75868e-015
rhumerus -28.576 -0.0317796 -87.5065
rradius 34.5166
rwrist 8.60026
rhand -8.00998 -5.76352
rfingers 7.12502
rthumb 17.8992 -34.9598
lclavicle 1.27719e-014 6.75868e-015
lhumerus -46.3241 -1.76041 81.7148
lradius 37.1033
lwrist 38.0629
lhand -11.2869 -10.1652
lfingers 7.12502
lthumb 14.7441 19.2905
rfemur -17.1313 -6.56115 27.5848
rtibia 25.397
rfoot -21.0554 18.0325
rtoes -2.05229
lfemur -35.3457 7.75373 -22.0727
ltibia 38.4617
lfoot -13.3147 15.4418
ltoes 7.13068
751
root 17.7825 16.4606 -13.3946 188.757 -14.879 185.824
lowerback -1.16596 6.51201 7.53871
upperback -7.82222 8.41782 -1.58756
thorax -6.24383 3.47855 -6.07649
lowerneck 6.70115 -3.42615 -30.752
upperneck 17.6742 -14.0033 32.257
head 8.76331 -8.8633 17.2164
rclavicle -5.18828e-014 -1.66979e-014
rhumerus -29.0331 -0.388616 -87.4346
rradius 34.6114
rwrist 8.66094
rhand -7.7362 -5.56639
rfingers 7.12502
rthumb 18.1627 -34.7384
lclavicle -5.18828e-014 -1.66979e-014
lhumerus -46.1916 -1.81332 81.6993
lradius 36.6457
lwrist 37.9763
lhand -11.6479 -10.1315
lfingers 7.12502
lthumb 14.3963 19.3492
rfemur -17.0949 -6.59818 27.2691
rtibia 25.7141
rfoot -21.5174 17.2075
rtoes -2.49008
lfemur -35.2597 7.81071 -22.4726
ltibia 38.401
lfoot -13.5135 14.5105
ltoes 6.73454
752
root 17.7523 16.4517 -13.4415 188.857 -15.6615 185.619
lowerback -1.50436 6.53568 7.09066
upperback -7.85239 8.40059 -1.63265
thorax -6.13477 3.49859 -5.84123
lowerneck 6.80812 -3.44867 -30.5821
upperneck 17.5226 -14.0077 32.3072
head 8.6835 -8.84741 17.1918
rclavicle -6.44062e-014 -2.5842e-014
rhumerus -29.4843 -0.759216 -87.3197
rradius 34.7187
rwrist 8.75291
rhand -7.39734 -5.33802
rfingers 7.12502
rthumb 18.4886 -34.4794
lclavicle -6.44062e-014 -2.5842e-014
lhumerus -46.0368 -1.93319 81.7352
lradius 36.2507
lwrist 37.9731
lhand -12.0699 -10.0777
lfingers 7.12502
lthumb 13.9897 19.4316
rfemur -17.071 -6.66171 26.971
rtibia 26.0858
rfoot -21.9749 16.412
rtoes -2.88496
lfemur -35.1663 7.89401 -22.8529
ltibia 38.3458
lfoot -13.7455 13.5045
ltoes 6.28523
753
root 17.722 16.4409 -13.4881 188.939 -16.4671 185.429
lowerback -1.83207 6.55422 6.63886
upperback -7.8781 8.38143 -1.66947
thorax -6.02965 3.51777 -5.59674
lowerneck 6.93157 -3.46872 -30.4402
upperneck 17.3556 -14.0184 32.3861
head 8.60353 -8.83896 17.189
rclavicle -1.07692e-013 9.54166e-015
rhumerus -29.9475 -1.1137 -87.182
rradius 34.838
rwrist 8.88007
rhand -7.00672 -5.06359
rfingers 7.12502
rthumb 18.8644 -34.1688
lclavicle -1.07692e-013 9.54166e-015
lhumerus -45.8892 -2.0909 81.8003
lradius 35.915
lwrist 38.0402
lhand -12.5282 -10.0156
lfingers 7.12502
lthumb 13.5479 19.5236
rfemur -17.0492 -6.75312 26.6865
rtibia 26.5075
rfoot -22.4115 15.6665
rtoes -3.23085
lfemur -35.055 7.97862 -23.2075
ltibia 38.3017
lfoot -14.0208 12.4557
ltoes 5.85013
754
root 17.6914 16.4287 -13.5338 188.995 -17.2867 185.266
lowerback -2.1366 6.57068 6.20351
upperback -7.89718 8.36625 -1.69372
thorax -5.93052 3.53814 -5.35082
lowerneck 7.04455 -3.49102 -30.3421
upperneck 17.1906 -14.0398 32.4948
head 8.53823 -8.83979 17.2131
rclavicle 7.78739e-014 1.31198e-014
rhumerus -30.4126 -1.46975 -87.0095
rradius 34.9668
rwrist 9.08252
rhand -6.55303 -4.73446
rfingers 7.12502
rthumb 19.3007 -33.7967
lclavicle 7.78739e-014 1.31198e-014
lhumerus -45.7372 -2.28043 81.8976
lradius 35.6268
lwrist 38.1633
lhand -13.0164 -9.9462
lfingers 7.12502
lthumb 13.0774 19.6238
rfemur -17.0296 -6.86724 26.4291
rtibia 26.9761
rfoot -22.8212 14.9734
rtoes -3.5833
lfemur -34.9291 8.04661 -23.5201
ltibia 38.2754
lfoot -14.3411 11.3919
ltoes 5.51146
755
root 17.6599 16.4154 -13.5785 189.015 -18.1194 185.13
lowerback -2.41053 6.58034 5.791
upperback -7.90444 8.34958 -1.70204
thorax -5.83631 3.55725 -5.10405
lowerneck 7.1484 -3.51393 -30.2765
upperneck 17.0268 -14.0645 32.6196
head 8.4815 -8.84464 17.2539
rclavicle 4.5969e-014 1.74931e-014
rhumerus -30.8712 -1.82846 -86.7991
rradius 35.0923
rwrist 9.39061
rhand -6.04708 -4.32898
rfingers 7.12502
rthumb 19.7871 -33.3418
lclavicle 4.5969e-014 1.74931e-014
lhumerus -45.5874 -2.49952 82.0314
lradius 35.391
lwrist 38.3252
lhand -13.5154 -9.86949
lfingers 7.12502
lthumb 12.5963 19.7307
rfemur -17.0032 -7.02711 26.1927
rtibia 27.4953
rfoot -23.2 14.3543
rtoes -3.96166
lfemur -34.7778 8.09448 -23.7998
ltibia 38.2658
lfoot -14.7025 10.3309
ltoes 5.31125
756
root 17.6275 16.4012 -13.6218 188.996 -18.9614 185.019
lowerback -2.64441 6.58266 5.40523
upperback -7.9037 8.33065 -1.69569
thorax -5.75577 3.57394 -4.86132
lowerneck 7.27141 -3.53348 -30.2145
upperneck 16.8476 -14.0845 32.7445
head 8.41437 -8.84846 17.2952
rclavicle 3.96575e-014 7.95139e-016
rhumerus -31.3232 -2.19444 -86.5517
rradius 35.2065
rwrist 9.80745
rhand -5.48628 -3.85315
rfingers 7.12502
rthumb 20.3261 -32.8095
lclavicle 3.96575e-014 7.95139e-016
lhumerus -45.4469 -2.74275 82.195
lradius 35.2012
lwrist 38.5114
lhand -14.0072 -9.79355
lfingers 7.12502
lthumb 12.1221 19.8353
rfemur -16.9759 -7.22874 25.9772
rtibia 28.0722
rfoot -23.5381 13.8063
rtoes -4.36963
lfemur -34.5989 8.12369 -24.0503
ltibia 38.2693
lfoot -15.1012 9.28126
ltoes 5.28894
757
root 17.5938 16.3868 -13.6635 188.936 -19.8221 184.921
lowerback -2.82532 6.57341 5.04112
upperback -7.89447 8.3041 -1.67763
thorax -5.69632 3.58572 -4.62456
lowerneck 7.40115 -3.55505 -30.1591
upperneck 16.6615 -14.1044 32.8615
head 8.34361 -8.8525 17.333
rclavicle -7.20594e-015 8.74653e-015
rhumerus -31.7667 -2.57461 -86.2645
rradius 35.3054
rwrist 10.3403
rhand -4.89122 -3.31612
rfingers 7.12502
rthumb 20.8979 -32.2105
lclavicle -7.20594e-015 8.74653e-015
lhumerus -45.3158 -3.00848 82.3896
lradius 35.0494
lwrist 38.7079
lhand -14.4697 -9.72216
lfingers 7.12502
lthumb 11.6762 19.9325
rfemur -16.952 -7.48855 25.7681
rtibia 28.7199
rfoot -23.8218 13.3302
rtoes -4.87941
lfemur -34.3835 8.13399 -24.2919
ltibia 38.2752
lfoot -15.5196 8.2567
ltoes 5.36927
758
root 17.5592 16.3722 -13.7032 188.836 -20.6943 184.837
lowerback -2.95357 6.55489 4.7015
upperback -7.8774 8.2721 -1.64987
thorax -5.65726 3.59357 -4.39727
lowerneck 7.54953 -3.56893 -30.1109
upperneck 16.4628 -14.1152 32.9832
head 8.26246 -8.85406 17.376
rclavicle -1.5863e-013 -3.65764e-014
rhumerus -32.197 -2.95606 -85.9459
rradius 35.3844
rwrist 10.9579
rhand -4.2761 -2.74214
rfingers 7.12502
rthumb 21.4888 -31.5702
lclavicle -1.5863e-013 -3.65764e-014
lhumerus -45.1969 -3.29881 82.611
lradius 34.9311
lwrist 38.8989
lhand -14.8753 -9.67409
lfingers 7.12502
lthumb 11.285 20.0023
rfemur -16.944 -7.79001 25.5658
rtibia 29.4519
rfoot -24.0341 12.9121
rtoes -5.48672
lfemur -34.1285 8.13144 -24.525
ltibia 38.2745
lfoot -15.9524 7.2665
ltoes 5.55155
759
root 17.5234 16.3579 -13.7407 188.699 -21.5643 184.754
lowerback -3.01976 6.52908 4.37845
upperback -7.85447 8.23696 -1.61438
thorax -5.64637 3.59881 -4.17838
lowerneck 7.70145 -3.57889 -30.0734
upperneck 16.2663 -14.1203 33.1003
head 8.17974 -8.8541 17.42
rclavicle -1.71949e-014 5.56597e-015
rhumerus -32.6126 -3.32151 -85.6013
rradius 35.442
rwrist 11.63
rhand -3.65194 -2.15943
rfingers 7.12502
rthumb 22.0882 -30.9179
lclavicle -1.71949e-014 5.56597e-015
lhumerus -45.0936 -3.60173 82.8536
lradius 34.8435
lwrist 39.0737
lhand -15.2105 -9.65238
lfingers 7.12502
lthumb 10.9617 20.0415
rfemur -16.9613 -8.12378 25.3561
rtibia 30.2831
rfoot -24.117 12.5725
rtoes -6.09873
lfemur -33.8271 8.13076 -24.764
ltibia 38.257
lfoot -16.3935 6.31689
ltoes 5.7926
